<svg width="36" height="36" viewBox="0 0 36 36" fill="none" xmlns="http://www.w3.org/2000/svg">
<path d="M30.0454 17.2045L24.4204 11.5795C24.2082 11.3745 23.924 11.2612 23.629 11.2637C23.3341 11.2663 23.0519 11.3846 22.8433 11.5932C22.6347 11.8018 22.5164 12.0839 22.5139 12.3789C22.5113 12.6739 22.6247 12.958 22.8296 13.1702L26.5343 16.8748H13.5C13.2016 16.8748 12.9155 16.9934 12.7045 17.2044C12.4935 17.4153 12.375 17.7015 12.375 17.9998C12.375 18.2982 12.4935 18.5844 12.7045 18.7953C12.9155 19.0063 13.2016 19.1248 13.5 19.1248H26.5343L22.8296 22.8295C22.7222 22.9332 22.6365 23.0574 22.5775 23.1946C22.5186 23.3319 22.4875 23.4795 22.4862 23.6289C22.4849 23.7783 22.5134 23.9264 22.57 24.0647C22.6265 24.2029 22.7101 24.3285 22.8157 24.4342C22.9213 24.5398 23.0469 24.6233 23.1852 24.6799C23.3234 24.7365 23.4716 24.7649 23.621 24.7636C23.7703 24.7623 23.918 24.7313 24.0552 24.6723C24.1925 24.6134 24.3166 24.5277 24.4204 24.4202L30.0454 18.7952C30.2563 18.5843 30.3748 18.2982 30.3748 17.9998C30.3748 17.7015 30.2563 17.4154 30.0454 17.2045Z" fill="#EF4949"/>
<path d="M11.25 28.125H7.875V7.875H11.25C11.5484 7.875 11.8345 7.75647 12.0455 7.54549C12.2565 7.33452 12.375 7.04837 12.375 6.75C12.375 6.45163 12.2565 6.16548 12.0455 5.95451C11.8345 5.74353 11.5484 5.625 11.25 5.625H6.75C6.45163 5.625 6.16548 5.74353 5.95451 5.95451C5.74353 6.16548 5.625 6.45163 5.625 6.75V29.25C5.625 29.5484 5.74353 29.8345 5.95451 30.0455C6.16548 30.2565 6.45163 30.375 6.75 30.375H11.25C11.5484 30.375 11.8345 30.2565 12.0455 30.0455C12.2565 29.8345 12.375 29.5484 12.375 29.25C12.375 28.9516 12.2565 28.6655 12.0455 28.4545C11.8345 28.2435 11.5484 28.125 11.25 28.125Z" fill="#EF4949"/>
</svg>
